Coordinates
version=1
nRows=11
nColumns=40
inDegrees=yes

Units are S.I. units (second, meters, Newtons, ...)
If the header above contains a line with 'inDegrees', this indicates whether rotational values are in degrees (yes) or radians (no).

endheader
time	pelvis_tilt	pelvis_list	pelvis_rotation	pelvis_tx	pelvis_ty	pelvis_tz	hip_flexion_r	hip_adduction_r	hip_rotation_r	knee_angle_r	knee_angle_r_beta	ankle_angle_r	subtalar_angle_r	mtp_angle_r	hip_flexion_l	hip_adduction_l	hip_rotation_l	knee_angle_l	knee_angle_l_beta	ankle_angle_l	subtalar_angle_l	mtp_angle_l	lumbar_extension	lumbar_bending	lumbar_rotation	arm_flex_r	arm_add_r	arm_rot_r	elbow_flex_r	pro_sup_r	wrist_flex_r	wrist_dev_r	arm_flex_l	arm_add_l	arm_rot_l	elbow_flex_l	pro_sup_l	wrist_flex_l	wrist_dev_l
      3.71500000	    -44.77887631	      5.50991682	     -6.83386171	     -0.45108594	      0.59046648	     -0.92987357	    112.02345406	     -7.89992423	      2.03634494	     89.27522928	      1.55814669	     24.20169414	      0.00000000	      0.00000000	    108.11877709	    -18.23764287	     -1.42236462	     92.59083559	      1.61601494	     32.99049821	      0.00000000	      0.00000000	    -24.44238999	     -6.10978105	     -2.12091169	      6.96564015	    -48.67048347	     71.38086438	     91.56678380	     85.26356728	      0.00000000	      0.00000000	     -1.87198249	    -57.58595341	     73.28138152	     91.38309297	     86.31622905	      0.00000000	      0.00000000
      3.72000000	    -44.28332278	      6.03684189	     -6.95437275	     -0.44947273	      0.59132988	     -0.92975148	    111.63021700	     -7.68437516	      2.60917470	     89.37399137	      1.55987042	     24.36545553	      0.00000000	      0.00000000	    107.23281124	    -18.39598286	     -2.04406368	     92.61626076	      1.61645869	     33.38266107	      0.00000000	      0.00000000	    -24.92463335	     -6.71305311	     -2.29699940	      7.24745801	    -48.56540176	     71.55450457	     91.52364028	     85.32281783	      0.00000000	      0.00000000	     -1.75133612	    -57.59707061	     73.20151603	     91.26995216	     86.37602529	      0.00000000	      0.00000000
      3.72500000	    -43.98922445	      5.92419833	     -6.99991931	     -0.44809004	      0.59188907	     -0.92929301	    111.19911605	     -7.58747798	      2.60757303	     89.45214707	      1.56123449	     24.58085490	      0.00000000	      0.00000000	    106.85772527	    -18.40667422	     -1.91658186	     92.68851296	      1.61771973	     33.45756609	      0.00000000	      0.00000000	    -25.16595503	     -6.71489490	     -2.34682659	      7.75609821	    -48.48122207	     72.19597275	     91.42589203	     83.53434489	      0.00000000	      0.00000000	     -1.80998237	    -57.68836035	     73.02613072	     91.45961342	     86.87902607	      0.00000000	      0.00000000
      3.73000000	    -44.08903214	      6.07463847	     -6.82059274	     -0.44723976	      0.59194443	     -0.92949134	    111.30542625	     -7.64202963	      2.89925918	     89.51949765	      1.56240998	     24.64018827	      0.00000000	      0.00000000	    106.77271413	    -18.17959477	     -2.08079289	     92.62186931	      1.61655658	     33.59243439	      0.00000000	      0.00000000	    -24.91579896	     -6.77378384	     -2.32079826	      7.46220332	    -48.49243111	     71.67029382	     91.45814225	     85.46649799	      0.00000000	      0.00000000	     -1.03419723	    -57.63944232	     73.98428039	     91.28900286	     86.10281505	      0.00000000	      0.00000000
      3.73500000	    -44.37879979	      5.63924791	     -6.46625419	     -0.44648638	      0.59187555	     -0.92976084	    111.35444100	     -7.93262038	      2.71583731	     89.53101690	      1.56261103	     24.84350970	      0.00000000	      0.00000000	    107.12921320	    -17.67305693	     -1.58725371	     92.56080798	      1.61549086	     33.53858482	      0.00000000	      0.00000000	    -24.46942788	     -6.19959414	     -2.46354975	      7.79393013	    -48.52138179	     72.15549493	     91.33744116	     85.24299379	      0.00000000	      0.00000000	     -1.15090508	    -57.49726159	     73.89319729	     91.17173408	     86.24159183	      0.00000000	      0.00000000
      3.74000000	    -43.78349935	      6.16383608	     -6.68263179	     -0.44461367	      0.59320738	     -0.92932238	    110.78544980	     -7.56649065	      3.30894587	     89.57120291	      1.56331241	     24.98410165	      0.00000000	      0.00000000	    106.09728935	    -17.91449301	     -2.18506604	     92.55498413	      1.61538921	     33.83847499	      0.00000000	      0.00000000	    -24.91815130	     -6.87592545	     -2.57575780	      8.12483438	    -48.37202419	     72.32080177	     91.31241532	     85.04950509	      0.00000000	      0.00000000	     -1.02525805	    -57.56834734	     73.79915142	     91.12005976	     86.29793434	      0.00000000	      0.00000000
      3.74500000	    -43.53876105	      6.24994986	     -6.74458462	     -0.44300378	      0.59425477	     -0.92899534	    110.40124946	     -7.40442858	      3.50970512	     89.57616814	      1.56339907	     25.15314945	      0.00000000	      0.00000000	    105.60975300	    -17.91172915	     -2.24557428	     92.52457335	      1.61485844	     33.99730040	      0.00000000	      0.00000000	    -24.96458186	     -7.01387197	     -2.27596584	      7.77556009	    -48.31107283	     71.90620178	     91.18658307	     85.32907592	      0.00000000	      0.00000000	      0.21564687	    -57.53272472	     75.08568863	     90.97017558	     86.23817557	      0.00000000	      0.00000000
      3.75000000	    -43.26627317	      6.39004827	     -6.55923280	     -0.44131947	      0.59533458	     -0.92919454	    110.03513038	     -7.48943800	      3.86894057	     89.62707222	      1.56428751	     25.31218934	      0.00000000	      0.00000000	    105.02534277	    -17.60674473	     -2.44254015	     92.41172468	      1.61288886	     34.13791281	      0.00000000	      0.00000000	    -25.04574687	     -7.10112396	     -2.56554267	      8.11952494	    -48.19208783	     72.28256671	     90.97204848	     85.41091625	      0.00000000	      0.00000000	      0.20939498	    -57.50344094	     74.96861195	     90.92823786	     86.26238000	      0.00000000	      0.00000000
      3.75500000	    -43.18593099	      6.09154778	     -6.38146593	     -0.44003698	      0.59634922	     -0.92917227	    109.66146299	     -7.55450446	      3.82816990	     89.56464828	      1.56319801	     25.42670669	      0.00000000	      0.00000000	    104.83381227	    -17.26353683	     -2.08547670	     92.30184162	      1.61097104	     34.19172864	      0.00000000	      0.00000000	    -24.89173825	     -6.73520463	     -2.62033844	      8.48247241	    -48.16596949	     72.55034718	     90.91400257	     85.51751716	      0.00000000	      0.00000000	      0.29282519	    -57.40673321	     74.99547036	     90.74387627	     86.07454918	      0.00000000	      0.00000000
      3.76000000	    -42.85126804	      6.26159853	     -6.62662084	     -0.43814776	      0.59781509	     -0.92839188	    109.13729159	     -7.17820290	      4.04143172	     89.52372446	      1.56248375	     25.62168085	      0.00000000	      0.00000000	    104.16813908	    -17.50481805	     -2.27082897	     92.22485945	      1.60962745	     34.36223275	      0.00000000	      0.00000000	    -24.91012053	     -7.04146842	     -2.45675631	      8.58850068	    -48.00573951	     72.62500878	     90.72363032	     85.56489359	      0.00000000	      0.00000000	      0.50279596	    -57.38047756	     74.99826375	     90.54068778	     86.06917832	      0.00000000	      0.00000000
      3.76500000	    -42.74086109	      6.27290542	     -6.53876938	     -0.43663518	      0.59919686	     -0.92837096	    108.80815265	     -7.10751345	      4.27307050	     89.40386974	      1.56039189	     25.63736652	      0.00000000	      0.00000000	    103.78726007	    -17.26364274	     -2.21541762	     92.04905501	      1.60655908	     34.37119350	      0.00000000	      0.00000000	    -24.70043111	     -7.02349726	     -2.44752502	      8.67121533	    -47.96817049	     72.62741457	     90.66301104	     85.57618564	      0.00000000	      0.00000000	      0.60899269	    -57.30137283	     74.99774869	     90.47331553	     86.06621989	      0.00000000	      0.00000000
